<svg viewBox="0 0 451 148" fill="none" xmlns="http://www.w3.org/2000/svg">
  <path fill-rule="evenodd" clip-rule="evenodd"
    d="M10 148C28.5142 148 42.6164 137.498 53.694 124.481C63.4949 112.965 71.9848 98.226 79.8882 84H96V138C96 143.523 100.477 148 106 148C111.523 148 116 143.523 116 138V84H138C143.523 84 148 79.5229 148 74C148 68.4771 143.523 64 138 64H91.07C97.0847 53.5565 103.055 44.0893 109.53 36.4816C118.879 25.4984 127.924 20 138 20C143.523 20 148 15.5228 148 10C148 4.47715 143.523 0 138 0C119.484 0 105.38 10.5016 94.3003 23.5184C88.2454 30.6322 82.691 38.9753 77.4663 47.6677C77.7425 46.3376 77.949 44.9887 78.0832 43.6261C78.9539 34.7868 76.7323 25.9193 71.7972 18.5344C66.8621 11.1496 59.5189 5.70449 51.019 3.12648C42.5192 0.548476 33.3884 0.996973 25.1821 4.39559C16.9759 7.79422 10.2018 13.9328 6.01433 21.7658C1.82686 29.5989 0.485276 38.6415 2.21832 47.3528C3.95137 56.0641 8.65172 63.9048 15.5181 69.539C22.3845 75.1733 30.9921 78.2526 39.8743 78.2526C42.5265 78.2526 45.07 77.199 46.9454 75.3237C48.8207 73.4483 49.8743 70.9048 49.8743 68.2526V64.0026L52.8812 67.0091C56.4308 70.5581 61.9844 70.8813 65.8989 67.9785L65.2459 69.1587C56.257 85.405 47.8956 100.435 38.463 111.519C29.1156 122.502 20.0725 128 10 128C4.47715 128 0 132.477 0 138C0 143.523 4.47715 148 10 148ZM45.2141 22.2655C41.1416 21.0303 36.7666 21.2452 32.8348 22.8736C28.9031 24.5019 25.658 27.4428 23.6522 31.1949C21.6464 34.9469 21.0039 39.278 21.8339 43.4504C22.664 47.6228 24.9154 51.3787 28.2049 54.0779C28.7402 54.5172 29.2977 54.9241 29.8743 55.2975V39.8631C29.8743 35.8186 32.3106 32.1723 36.0471 30.6244C39.7837 29.0765 44.0847 29.9318 46.9448 32.7915L57.8618 43.7068C58.0053 43.0356 58.1117 42.3541 58.1795 41.6654C58.5966 37.4318 57.5325 33.1844 55.1685 29.647C52.8045 26.1095 49.2867 23.5007 45.2141 22.2655Z"
    fill="white" />
  <path
    d="M418.392 29.0228C423.095 36.0616 425.605 44.7447 425.605 53.2102H450.064V74.2038H426.013V95.6051C426.013 98.3885 426.561 101.145 427.626 103.717C428.692 106.289 430.253 108.625 432.221 110.594C434.19 112.562 436.527 114.124 439.098 115.189C441.67 116.254 447.28 116.803 450.064 116.803V138C444.496 138 436.13 136.903 430.986 134.773C425.843 132.642 421.169 129.519 417.233 125.583C413.296 121.646 410.173 116.972 408.042 111.829C405.912 106.686 404.815 101.173 404.815 95.6051V74.2038H382.803V53.2102H404.204C404.204 48.9774 402.949 44.4321 400.597 40.9127C398.245 37.3932 394.903 34.6502 390.992 33.0304C387.082 31.4106 382.779 30.9867 378.627 31.8125C374.476 32.6383 370.663 34.6765 367.67 37.6696C364.677 40.6626 362.638 44.4759 361.812 48.6274C360.987 52.7788 361.411 57.0819 363.03 60.9925C364.65 64.903 367.393 68.2455 370.913 70.5971C374.432 72.9487 378.57 74.2038 382.803 74.2038V95.6051C374.337 95.6051 366.062 93.0948 359.023 88.3916C351.984 83.6884 346.498 77.0035 343.258 69.1824C340.019 61.3613 339.171 52.7551 340.822 44.4522C342.474 36.1493 346.551 28.5227 352.537 22.5366C358.523 16.5506 366.149 12.474 374.452 10.8225C382.755 9.17091 391.361 10.0185 399.182 13.2582C407.004 16.4978 413.688 21.9839 418.392 29.0228Z"
    fill="white" />
  <path d="M314 74.2702L244.25 114.54V86.7702H176V62.7702H244.25V34L314 74.2702Z" fill="white" />
</svg>